<?xml version="1.0" encoding="utf-8"?>
<!-- Generator: Adobe Illustrator 21.0.0, SVG Export Plug-In . SVG Version: 6.00 Build 0)  -->
<!DOCTYPE svg PUBLIC "-//W3C//DTD SVG 1.1//EN" "http://www.w3.org/Graphics/SVG/1.1/DTD/svg11.dtd">
<svg version="1.1" id="Layer_1" xmlns="http://www.w3.org/2000/svg" xmlns:xlink="http://www.w3.org/1999/xlink" x="0px" y="0px"
	 viewBox="0 0 300 300" style="enable-background:new 0 0 300 300;" xml:space="preserve">
<style type="text/css">
	.st0{opacity:0.5;}
	.st1{fill:#FFFFFF;}
</style>
<g class="st0">
	<g>
		<circle class="st1" cx="150" cy="150" r="12.2"/>
		<path class="st1" d="M100.2,122.4c3.1,3.1,7.1,4.6,11.1,4.6s8.1-1.5,11.1-4.6c6.1-6.1,6.1-16.1,0-22.3L29.9,7.6
			c-6.1-6.1-16.1-6.1-22.3,0s-6.1,16.1,0,22.3L100.2,122.4z"/>
		<path class="st1" d="M188.7,127c4,0,8.1-1.5,11.1-4.6l92.5-92.5c6.1-6.1,6.1-16.1,0-22.3c-6.1-6.1-16.1-6.1-22.3,0l-92.5,92.5
			c-6.1,6.1-6.1,16.1,0,22.3C180.7,125.5,184.7,127,188.7,127z"/>
		<path class="st1" d="M270.1,292.4c3.1,3.1,7.1,4.6,11.1,4.6s8.1-1.5,11.1-4.6c6.1-6.1,6.1-16.1,0-22.3l-92.5-92.5
			c-6.1-6.1-16.1-6.1-22.3,0c-6.1,6.1-6.1,16.1,0,22.3L270.1,292.4z"/>
		<path class="st1" d="M18.7,297c4,0,8.1-1.5,11.1-4.6l92.5-92.5c6.1-6.1,6.1-16.1,0-22.3s-16.1-6.1-22.3,0L7.6,270.1
			c-6.1,6.1-6.1,16.1,0,22.3C10.7,295.5,14.7,297,18.7,297z"/>
	</g>
</g>
</svg>
